<svg clip-rule="evenodd" fill-rule="evenodd" height="297mm" image-rendering="optimizeQuality" shape-rendering="geometricPrecision" text-rendering="geometricPrecision" viewBox="2077.27 6266.71 17598.21 14446.92" width="210mm" xmlns="http://www.w3.org/2000/svg" xmlns:xlink="http://www.w3.org/1999/xlink"><linearGradient id="a" gradientUnits="userSpaceOnUse" x1="16756.13" x2="4246.83" y1="10746.02" y2="10746.02"><stop offset="0" stop-color="#feba32"/><stop offset=".451" stop-color="#e63e23"/><stop offset=".522" stop-color="#e63e23"/><stop offset="1" stop-color="#fab934"/></linearGradient><linearGradient id="b" gradientUnits="userSpaceOnUse" x1="13722.71" x2="13722.71" y1="16258.82" y2="7800.31"><stop offset="0" stop-color="#e63b2e"/><stop offset=".439" stop-color="#f9b939"/><stop offset=".588" stop-color="#fcba37"/><stop offset="1" stop-color="#e63e23"/></linearGradient><linearGradient id="c" gradientUnits="userSpaceOnUse" x1="5083.94" x2="5083.94" y1="12605.26" y2="8764.46"><stop offset="0" stop-color="#613b85"/><stop offset=".251" stop-color="#67309b"/><stop offset=".549" stop-color="#b29ec9"/><stop offset=".859" stop-color="#6514a3"/><stop offset="1" stop-color="#5f3186"/></linearGradient><linearGradient id="d" gradientUnits="userSpaceOnUse" x1="15855.26" x2="15855.26" xlink:href="#c" y1="12605.41" y2="8453.96"/><linearGradient id="e" gradientUnits="userSpaceOnUse" x1="5203.56" x2="7821.29" xlink:href="#c" y1="8432.71" y2="5910.47"/><linearGradient id="f" gradientUnits="userSpaceOnUse" x1="7466.19" x2="7466.19" y1="13181.42" y2="6288.05"><stop offset="0" stop-color="#e63b2e"/><stop offset=".4" stop-color="#f9b939"/><stop offset=".549" stop-color="#fcba37"/><stop offset="1" stop-color="#e63e23"/></linearGradient><path d="m4578.54 7931.77c-251.9-340.31-392.52-708.45-442.25-1099.3 682.69-304.02 1467.79-492.96 2369.5-544.26 1371.74 392.68 2068.91 1003.2 2382.78 1766.76-1407.85-769.97-2868.49-920.1-4310.03-123.2z" fill="url(#e)"/><path d="m6556 12524.84c-645.04 122.37-1313.75 116.66-1975.64-97.92-585.21-354.04-913.96-937.96-968.47-1822.7 28.52-1548.79 1134.12-2078.24 2520.82-1743.72-1646.64 1359.76-1085.23 3163.91 423.29 3664.34z" fill="url(#c)"/><path d="m6938.22 8279.26c-1065.77-48.92-1996.28 202.64-2691.4 827.63 921.32-415.29 1951.01-486.62 3260.01 328.53l3146.28 2148.06c2167.92 1556.18 4255.44 2337.95 6103.03 808.69-1825.59 456.72-3207.97-159.08-4700.47-1465.74-1666.2-1223.59-3445.24-2403.85-5117.45-2647.17z" fill="url(#a)"/><path d="m10178.17 10991.77c827.12-2493.02-1261.96-4725.06-3672.4-4703.56 2363.62 686.37 2992.35 2314.17 2358.93 3976.93-938.79 1958.21-2322.52 2713.48-4294.62 2155.79 2011.1 1369.87 4630.36 886.54 5608.09-1429.16z" fill="url(#f)"/><path d="m17413.4 10849.16c-107.76-2337.33-1633.17-2639.41-3116.26-2255.68 965.58 289.02 1627.71 844.43 1648.22 1876.01-49.73 1054.12-475.83 1676.35-1166.77 1988 1368.95 283.42 2495.07 350.69 2634.81-1608.33z" fill="url(#d)"/><path d="m13468.52 7871c1078.28-228.65 2446.72 85.93 3283.44 1111.99-1744.7-848.04-4668.79-256.61-4816.66 2632.25l6.07 4640.4c-683.82 35.22-1227.03-221.59-1247.9-833.32v-3790.7c77.36-1895.71 896.22-3229.67 2775.05-3760.62z" fill="url(#b)"/><g fill-rule="nonzero"><path d="m11296.88 17893.66c-71.92 4.42-142.81 27.03-204.73 65.01-216.49 137.28-212.75 414.15-212.75 466.25 0 179.6 52.02 381.02 230.21 476.4 59.13 28.46 120.39 43.8 187.27 43.8v348.74c-85.17-14.5-193.5-48.01-299.04-127.58-31.77-26.92-66.42-62.86-96.59-99.84l-.54 12.79c-2.34 17.54-2.34 39.5-5.7 58.45 5.7 70.81-1.14 142.9 2.23 214.06-5.4 57.17 1.6 119.01-5.4 177.27-1.79 77.34-3.93 155.79-8.05 235.17 2.63 21.85-.84 40.34-.84 59.59.84 24.83-3.55 44.54-5.23 68.91-5.13 9.43 0 20.47-10.63 28.79-25.24 10.93-37.27 37.17-43.97 64.44-4.96 144.38-11.2 294.84-19.52 444.35-1.41 28.95-5.31 58.66-16.43 83.5l-31.31 38.87-10.46 58.64c-4.1 4.66-3.34 9.33-10.63 10.27-3.82-28.76 0-59.58-.46-90.98l.46-77.5-4.66-9.44c-18.79 86.67-22.91 180.63-29.53 266.84-3.82 3.17-10.08 0-14.01-.95-10.36-25.59-3.9-59.39-7.29-87.97-22.12-28.03-26.33-68.83-22.12-106.1l3.36-102.56c-3.36-11.93-3.36-25.94-4.12-38.36-10.74-3.47-22.13-6.64-24.56-19.24 1.03-3.94-1.04-5.13-4.1-7.38 8.87-56.68 5.13-113.4 11.2-170.82-6.07-15.04 3.09-34.1.95-50.91 8.48-81.35 11.3-159.97 9.43-241.7-10.38-5.43-3.66-23.72-18.52-22.69-17.16 72.95-19.78 155.49-34.64 230.02 4.2 18.98-4.2 31.01-3.06 48.5 15.58 17.27 21.85 40.88 20.54 61.05-7.21 7.02-5.53 16.91-14.31 22.15l4.96 30.63c-8.13 14.86-14.37 28.38-20.63 43.89-4.85.49-9.54 3.36-13.74 0-3.17-35.11-3.17-70.05 4.96-100.77-3.17-30.25 1.3-66.96 0-99.08 5.5-130.78 1.3-254.12 0-385.9-4.2-2.25-8.87-6.83-11.2-1.9-16.72 44.65-4.77 98.35-27.11 141.24-9.13-40.75-13.34-264.24-4.47-313.17-3.09-82.85 3.93-170.63.57-257.86 3.36-53.06-22.88-84.69-24.21-44.73-1.84 66.41-9.71 130.01-2.6 196.4 0 121.05-7.11 248.43-9.9 372.27 2.88 54.27-12.25 112.56-7.56 172.42 0 25.21-7.86 57.44 0 82.54-2.36 9.63 0 21.85-10.65 24.76-8.14-9.25-26.44-4.75-22.23-22.13-3.37-11.03 4.47-18.67 12.52-24.75 3.9-32.23 3.9-69.4-8.05-102.09-4.47-33.16 15.61-66.12 11.22-100.58-5.8-4.09.73-14.28-8.13-18.95-6.15-8.59-3.09-21.2-1.49-30.63 13.55-26.35 4.93-63.79 3.82-93.77-2.33-20.93-17.19-37.55-16.62-59.4-3.17-56.98-.57-104.23 3.36-158.02-1.87-42.05.84-88.84 2.06-133.57 1.31-45.84-1.22-98.43-2.06-146.9 2.06-79.68-.84-159.24-.84-241.98-3.09-3.36-3.09-8.51-8.02-11.23-9.08 37.55-32.51 17.38-38.85-4.85 4.28-25.02 0-46.49 2.41-68.91 1.87-18.03 3.37-38.12 1.87-55.68-4.2-89.65 8.52-180.39 4.97-266.57 4.39-98.43-4.97-194.59 9.05-291.7l-2.06-56.74c2.79-88.4 4.2-180.87 4.2-269.68-1.41-23.45 0-50.15-4.2-75.96-2.6-1.47-4.47-3.72-6.99 0-6.84 19.14-16.46 38.71-16.46 61.81-4.47 6.99-12.5 11.19-20.36 4.63-10.44-21.96-4.93-43.34-10.44-66.44 1.31-41.26 0-85.7 11.74-124.92l4.2-6.64c4.97-67.15 4.97-141.41 31.32-203.22 4.39-15.42 20.71-20.17 34.53-23.12 24.59-2.25 37.28 27.98 49.5 44.27 20.09-2.9 43.54 4.15 60.16-9.44 29.79-7.61 20.09 29.66 32.04 41.62 9.71 16.1 28.47 13.58 44.35 14.15 52.3-3.04 18.68-87.65 77.05-71.19 9.89 21.96 34.08 29.01 56.79 27.05 38.28 12.48 91.12 11.01 104.48 58.48 11.2 26.24 13.83 58.64 13.83 86.64-1.6 2.39-1.6 45.76-1.03 102.99 21.58-22.37 44-45.54 56.22-58.94 91.72-92.74 219.75-156.53 355.27-185.02zm26.06-.46c-8.6 0-17.27.27-26.06.46v-350.85c55.77-12.61 112.53-17.73 168.3-17.73 285.52-.46 453.43 143.87 523.83 217.93 98.28 107.03 216.23 306.74 216.23 644.15 0 60.32-3.17 233.76-66.5 413.93-153.63 443.27-530.02 501.91-717.64 501.91-30.17 0-73.41-1.41-124.22-9.14v-348.74h1.3c72.96 0 133.08-21.3 157.84-33.83 261.33-118.3 258.43-479.54 258.43-512.18.27-35.81 2.6-333.04-202.94-456.93-31.75-19.35-94.99-48.98-188.57-48.98zm3074.53-788.64-5.78-1.36c-4.12-5.45-4.12-10.95-8.02-17.32-3.74-3.63-10.19-6.53-12.25-12.88l-4.2-3.87c1.59-7.57 0-13.18-6.54-16.08-.65-5.88 8.7-16.35 12.07-21.66 3.44-5.64-1.33-9.49-3.94-12.42-6.07-3.68-8.13-13.63-5.42-20.46-.65-7.57-5.77-12.18-11.19-18.76-8.6-14.16-11.77-118.8-13.64-124.65 7.56-5.07 7.27-17.79 16.7-18.95 10.38-2.01 8.13-11.71 17.49-21.2 3.44-9.55 55.46 15.1 52.02 3.63 3.44-5.07 0-11.71 5.96-15.34 4.77-1.47 11.77-5.15 14.86-9.74-.46-5.58 8.86-9.97 8.86-14.09 7.11-3.45 5.24 9.43 14.1 4.12 11.22-1.79 11.22-13.64 18.52-16.54 1.65-6.61 3.71-13.69 9.32-18.95.84-4.69-1.22-9.54 3.93-13.69 10.28-5.88 17.54 9.76 26.05-3.69.57-4.58-3.82-7.48.57-10.38 13.26-1.33 56.77-35.57 67.99-37.06 10.09-2.71 14.83-12.14 24.19-8.32 7.37 5.61 16.7-7.51 22.88-7.51v-.05c1.68 0 3.17 1.03 3.93 5.17 4.17 1.93 10.73 4.45 10.73 6.57.57 3.63 4.48 4.14 9.06 4.14l4.96-8.78c7.37 2.14 3.17 10.27 12.03 8.78 1.31 1.44 8.6 3.17 10.66 8.54 4.2 1.87 2.6 8.98 8.86 10.47 22.42-17.57 5.24 4.39 8.6 5.12 3.93 1.92 9.62 7.24 7.29 11.63 3.9.46 2.33 5.61 6.53 6.59 2.04 2.9 10.47-.98 7.76 5.42 5.23 2.6 4.74 9.7 11.76 9.7 1.76 3.88 8.13 7.35 1.76 12.61 6.37 0 6.37 4.45 11.5 4.45 6.8 5.96 24.75 19.19 25.59 25.78 1.03 5.31 41.37 39.69 41.37 42.13 1.6 1.95 8.86 14.31 9.43 16.83 1.49 3.88 13.45 36 16.54 43.05-3.09 4.07 2.44 8.51 1.68 12.44 7.27-3.47 7.18 2.66 9.62 7.32-1.6 5.56 5.78 17.71 6.27 22.15 0 1.44 4.66 3.63 6.23 6.29 3.66 0 10.47 14.61 11.12 19.71-3.07 7.35-11.12 112.04-84.04 144.85-5.24 4.9-7.02-1.17-12.07-1.17-14.17.62-3.82 13.64-12.41 19.49-8.14 3.63-9.63 0-15.7-1.27-7.56 2.14-15.13 2.19-19.98 1.27-8.59 5.31-19.06.71-24.56 10.17-7.75 5.8 3.93 9.54-1.76 14.66-5.23-2.71-11.04 4.12-18.79 1.63-4.66.51-11.95 5.88-13.26 7.81-7.29 4.63-11.19 0-16.99 0-11.96-7.3-6.16 48.47-17.95 46.84-11.95 3.77-20.63-.57-26.05 6.73-5.78 8.78-16.7 3.44-25.59 9.05-4.58-4.42 2.17 21.85-3.83 25.54-1.57 1.92-28.68 4.58-32.04 4.58-12.98 3.41-22.96-1.9-36.22 0-1.49-6.64-15.04 0-14.01-8.27-14.29-10.68-21.66-68.4-31.86-82.01-3.06-6.56-7.83-11.9-13.52-15.83-9.9-1.24-17.76-6.07-19.52-12.63-2.63-3.66-3.93-9.54-9.63-7.56-7.29 0-33.07-8.79-38.03-12.77z" fill="#ffb318"/><path d="m5598.08 17104.56-6.46-1.36c-5.61-5.45-5.61-10.95-7.48-17.32-4.2-3.63-10.92-6.53-14.09-12.88l-2.8-3.87c.84-7.57-2.52-13.18-7.56-16.08-1.41-5.88 9.05-16.35 13.53-21.66 1.6-5.64-3.17-9.49-5.13-12.42-6.18-3.68-7.29-13.63-5.61-20.46-.57-7.57-5.23-12.18-11.19-18.76-8.06-14.16-11.23-118.8-14.32-124.65 8.24-5.07 7.02-17.79 17.49-18.95 9.51-2.01 8.59-11.71 16.43-21.2 3.93-9.55 55.65 15.1 52.67 3.63 2.98-5.07 0-11.71 6.15-15.34 4.77-1.47 12.64-5.15 14.02-9.74.27-5.58 8.7-9.97 8.7-14.09 7.56-3.45 7.18 9.43 14.67 4.12 12.41-1.79 11.95-13.64 19.41-16.54.27-6.61 4.12-13.69 8.67-18.95 1.98-4.69-1.38-9.54 5.04-13.69 9.82-5.88 17.3 9.76 25.43-3.69.93-4.58-4.96-7.48 1.66-10.38 11.22-1.33 55.95-35.57 68.1-37.06 9.43-2.71 14.2-12.14 24.67-8.32 5.58 5.61 15.12-7.51 20.35-7.51 2.53-.05 3.18.98 3.91 5.12 5.88 1.93 11.22 4.45 10.76 6.57.46 3.63 5.78 4.14 9.06 4.14l7.45-8.78c5.99 2.14 1.33 10.27 9.35 8.78 3.18 1.44 10.17 3.17 10.93 8.54 5.58 1.87 4.85 8.98 10.73 10.47 20.36-17.57 5.32 4.39 7.76 5.12 4.85 1.92 8.4 7.24 6.99 11.63 2.52.46 1.41 5.61 5.61 6.59 3.17 2.9 10.36-.98 8.79 5.42 4.96 2.6 4.96 9.7 11.68 9.7 1.57 3.88 7.84 7.35 2.52 12.61 3.91 0 5.32 4.45 10.93 4.45 5.88 5.96 24.56 19.19 24.56 25.78 1.38 5.31 42.75 39.69 43.7 42.13.11 1.95 6.45 14.31 8.67 16.83 1.41 3.88 11.96 36 15.43 43.05-3.47 4.07 3.36 8.51 1.11 12.44 8.05-3.47 8.05 2.66 10.27 7.32-2.22 5.56 5.43 17.71 7.3 22.15 0 1.44 4.85 3.63 4.85 6.29 3.82 0 10 14.61 11.68 19.71-2.33 7.35-10.27 112.04-84.9 144.85-3.83 4.9-7.19-1.17-10.01-1.17-15.12.62-5.04 13.64-14.45 19.49-6.26 3.63-8.78 0-14.96-1.27-6.07 2.14-14.18 2.19-20.9 1.27-7.48 5.31-18.52.71-23.26 10.17-8.05 5.8 2.79 9.54-.76 14.66-6.53-2.71-12.61 4.12-18.49 1.63-6.15.51-12.6 5.88-15.78 7.81-5.61 4.63-9.35 0-16.8 0-10.01-7.3-4.67 48.47-17.3 46.84-11.2 3.77-21.47-.57-26.05 6.73-5.23 8.78-17.54 3.44-25.4 9.05-4.78-4.42 3.36 21.85-3.93 25.54-3.18 1.92-29.42 4.58-32.78 4.58-10.93 3.41-22.12-1.9-34.65 0-3.36-6.64-16.8 0-14.93-8.27-15.32-10.68-22.61-68.4-31.86-82.01-3.82-6.56-7.75-11.9-14.28-15.83-8.68-1.24-16.43-6.07-19.25-12.63-2.22-3.66-3.91-9.54-9.25-7.56-7.94 0-32.39-8.79-36.4-12.77z" fill="#f00"/><path d="m17693.65 17556.96h425.7v331.79h-429.6v725.48c3.9 72.08-3.09 309.59 276.35 309.59 42.21-.19 84.69-3.74 171.66-25.78l10.92 349.22c-115.62 26.02-193.53 45.84-311.76 45.84-44.81 0-300.83-3.17-449.88-147.39-161.76-153.14-157.56-410.09-154.47-606.9l.27-650.06v-331.79l.57-155.26c0-222.84 183.61-310.26 354.16-348.65l105.54-.08zm1241.04 1738.28c-150.92 0-265.81-8.02-542.89-72.73l2.87-59.43c12.72-81.81 67.72-230.1 280.18-224.9 59.96 13.29 127.41 22.07 199.31 22.07 210.23-.19 321.46-87.89 321.46-183.34-3.06-74.25-62.46-115.38-125.9-145.85-124.67-56.2-257.29-81.03-380.02-133.84-94.5-39.74-320.62-156.83-320.62-440.12 0-42.64 5.99-144.68 69.13-246.21 87.78-129.2 290.64-279.93 670.39-279.93 175.1 0 310.81 26.05 481.71 66.23l-31.56 325.64c-139.34-38.61-240.22-65.17-382.92-65.17-116.65 0-192.21 23.34-239.08 46.49-79.02 37.46-96.67 100.55-96.67 136.36 0 77.4 64.82 108.06 136.55 133.62 132.24 51.4 274.48 78.4 407.86 133.92 188.36 84.69 290.99 247.35 290.99 442.81 0 72.27-15.39 248.32-186.32 385.9-153.63 127.01-353.48 158.48-554.47 158.48zm-5682.13-1455.34c-15.05-.98-30.64-1.44-46.79-1.44-222.46-.05-411.31 87.65-474.72 120.21-27.27 15.64-46.06 25.34-94.23 65.79l-14.86-385.44c233.39-75.53 380.59-113.94 628.83-113.94h1.77zm0 1433.38c-59.86 13.94-127.58 21.96-203.89 21.96-75.83 0-400.65-11.84-562.98-253.66-26.98-38.93-82.55-136.63-82.55-270.17 0-140.86 62.02-238.16 91.44-281.02 163.33-224.98 485.55-271.66 757.98-278.55v286.6c-86.94 9.9-169.22 29.69-234.04 66.69-57.34 34.59-84.25 75.99-99.57 99.28-11.31 16.59-30.72 54.32-30.72 107 0 29.6 10.36 65.36 25.49 94.58 60.99 126.58 219.01 133.19 261.22 133.19 18.03-.08 45.11-1.38 77.62-7.29zm375.63-251.76c-24.65 35.67-35.11 49.28-52.84 69.75-53.62 59.13-157.86 141.68-322.79 182.01v-281.39c76.58-14.64 181.36-53.33 260-151.65 86.97-108.17 94.81-216.15 104.43-346.16h.08c-104.97-4.2-239.19-10.22-364.51 4.36v-286.6c28.22-.73 55.84-.65 82.95-.65 89.46-.32 181.72 2.12 271.86 5.56 0 0-3.83-120.75-27.55-183.04-36.24-88.92-126.38-181.2-327.26-193.81v-314.82c46.71-.46 153.46 0 270.96 26.11 306.6 64.43 426.13 228.8 468.07 346.16 40.17 100.3 41.2 201.58 44.65 406.12v405.99c0 104.7 2.25 208.01 4.58 312.14 1.3-.08 1.3 239.84 192.28 239.84l-404.58-.27c-191.93 0-202.18-239.57-202.18-239.57z" fill="#ffb318"/><path d="m2926.61 17847.14c-15.02-1.17-30.83-1.17-46.69-1.17-223.32-.46-411.14 89.11-474.74 119.31-26.51 17.49-45.87 26.54-93.96 66.69l-14.28-385.69c233.76-75.25 380.86-113.88 628.26-113.88h1.41zm0 1432.7c-59.86 14.67-127.85 23.16-204.25 23.16-75.09 0-401.13-11.39-561.11-253.1-27.65-39.79-83.98-137.85-83.98-271.04 0-140.75 62.67-237.8 89.57-281.12 166.34-223.84 487.23-271.23 759.77-278.28v287.01c-86.75 10.16-169.79 29.52-235.37 66.77-55.38 31.28-83.12 75.14-98.13 98.03-10.66 16.07-31.78 54.84-31.78 107.59 0 29.14 11.04 65.2 25.32 94.7 63.41 126.08 219.86 133.18 262.53 133.18 18.41 0 45.49-1.95 77.43-7.56zm375.54-250.68c-22.88 36.41-35.21 50.16-51.45 69.11-54.57 59.58-159.54 141.97-324.09 181.66v-280.83c76.66-14.21 181.38-52.67 260.84-151.6 87.05-107.11 94.23-214.7 103.59-345.15v-.27c-104.43-4.34-239.11-9.95-364.43 4.39v-287.09c27.92-.76 55.49-.65 82.27-.65 90.87-.57 181.66 3.17 272.8 4.09 0 0-2.41-119.5-28-180.33-35.21-89.9-125.62-182.83-327.07-195.3v-314.79c45.57-.46 153.16.27 271.5 27.05 307.82 63.98 425.89 227.37 467.53 344.7 38.49 100.79 41.28 203.32 45.02 407.13v405.28c0 103.51.93 209.13 4.02 312.6 2.79 0 1.41 239.84 193.69 239.84h-405.88c-190.52 0-200.8-239.84-200.8-239.84zm3851.11-1182.02c-15.12-1.17-30.52-1.17-46.6-1.17-224.33-.46-412.06 89.11-476.5 119.31-26.78 17.49-44.16 26.54-93.12 66.69l-14.29-385.69c234.44-75.25 380.78-113.88 628.94-113.88h1.57zm0 1432.7c-59.96 14.67-127.93 23.16-204.7 23.16-76.23 0-400.68-11.39-562.06-253.1-26.89-39.79-83.5-137.85-83.5-271.04.38-140.75 62.22-237.8 90.68-281.12 165.51-223.84 486.97-271.23 759.58-278.28v287.01c-87.32 10.16-170.24 29.22-235.44 66.77-56.23 31.28-83.66 75.14-97.33 98.03-11.19 16.07-32.47 54.84-32.47 107.59 0 29.14 11.11 65.2 24.83 94.7 63.22 126.08 220.05 133.18 261.23 133.18 18.67 0 46.79-1.95 79.18-7.56zm373.87-250.68c-22.99 36.41-33.43 50.16-50.15 69.11-53.9 59.58-158.4 141.97-323.72 181.66v-280.83c76.97-14.78 181.2-53.7 259.09-151.6 87.05-107.11 95.07-214.7 105.81-345.15v-.27c-104.89-4.34-239.65-9.71-364.9 4.39v-287.09c28.22-.76 56.23-.65 83.04-.65 89.11-.57 181.55 3.17 271.12 4.09 0 0-3.28-119.5-27.92-180.33-35.22-89.9-125.71-182.37-326.24-195.3v-314.79c45.95-.46 153.28.27 270.96 27.05 306.42 63.98 425.32 227.37 466.69 344.7 39.5 100.79 42.78 203.32 46.22 407.13v405.28c0 103.51 1.41 209.13 3.36 312.6 3.28 0 1.14 239.84 192.78 239.84h-404.69c-191.07 0-201.45-239.84-201.45-239.84z" fill="#f00"/><path d="m14387.57 18949.22c0 195.1 196.6 313.63 353.97 313.63h119.36l-.84-1718.31h-472.49z" fill="#ffb318"/><path d="m4568.03 19303c-149.73 0-265.16-8.79-542.82-73.99l2.07-59.39c13.98-80.68 68.53-229.84 280.06-224.5 61.11 12.88 127.69 22.7 200.53 22.7 210.04 0 321.74-87.54 321.74-181.85-3.91-75.75-62.76-118.85-125.06-147.37-127.09-56.69-259.17-81.47-380.37-134.33-94.91-38.25-321.85-156.31-321.85-440.12 0-41.69 5.59-143.65 70.06-244.93 86.94-131.51 290.15-280.51 670.19-280.51 174.91-.48 310.16 26.06 481.36 64.77l-31.31 326.69c-139.89-38.63-240.68-65.19-383.76-65.19-115.62-.79-192.56 23.12-237.59 46.46-80.87 38.96-97.3 100.09-97.3 135.9 0 78.65 65.37 108.11 134.3 133.65 134.3 53.33 277.55 78.62 409.71 134.11 188.57 84.53 290.1 247.81 290.1 443.32 0 72.38-14.02 248.32-184.65 385.9-153.65 126.74-353.12 158.68-555.41 158.68zm5417.62-1385.95c15.7 50.62 22.13 287.01 26.25 524.87v838.66h-232.39c-103.09-45.49-195.83-81.06-224.98-220.02v-726.73c-6.53-159.7-30.52-322.3-167.83-398.02-29.31-15.39-84.88-37.73-172.88-37.73-64.9 0-215.27 15.34-316.77 156.31-90.41 122.91-98.54 277-101.34 421.39l-5.15 795.28-467.23 2.22-.84-1708.51h439.12l1.98 264.15c39.96-48.96 91.14-120.74 220.4-192.8 80.05-41.42 195.76-97.41 407.94-97.41 28.68-.48 122.73 3.91 209.96 23.43 188.66 47.68 331.09 179.14 383.76 354.91z" fill="#f00"/><path d="m16898.12 18609.67v55.25zm-264.12 641.22c-89.55-43.73-168.76-84.61-195.11-210.69v-726.32c-6.53-159.43-30.15-320.62-168.57-396.83-28.68-15.58-84.88-38.9-172.41-38.9-65.17-.32-216.2 17.05-316.78 155.56-91.44 125.08-98.16 277.57-101.06 421.9l.11 797.15h-472.14l-9.05-1708.22h445.87l4.2 264.35c37.54-47.61 90.41-120.88 219.66-192.24 78.84-42.18 194.84-97.64 408.41-97.64 28.14 0 122.91 3.44 209.42 23.61 188.08 48.44 331.9 178.73 383.92 355.46 18.87 62.48 25.32 431.69 27.65 711.86l1.12 54.98-1.12 39.69c0 104.89 1.03 209.31 4.21 313.55 3.09 0 32.5 192.85 253.39 240.57l-465.69-.57c-19.03 0-39.69-3.34-56.03-7.27z" fill="#ffb318"/><path d="m5586.01 18949.22c0 195.1 198.2 313.63 354.05 313.63h119.74l-.57-1718.31h-473.22z" fill="#f00"/></g></svg>